# xmcd
#
# Track frame offsets:
#	150
#	10899
#	22150
#	33262
#	46294
#	57439
#	68933
#	79579
#	88097
#	98398
#	110208
#	119175
#
# Disc length: 1716 seconds
#
# Revision: 1
# Processed by: cddbd v1.5.2PL0 Copyright (c) Steve Scherf et al.
# Submitted via: audiograbber 1.83.01
#
DISCID=a006b20c
DTITLE=The Browns - Town And Country
DYEAR=1960
DGENRE=Country
TTITLE0=My Adobe Hacienda
TTITLE1=Rad Sails in the Sunset
TTITLE2=Streamlined Cannonball
TTITLE3=Cool Water
TTITLE4=The Enchanted Sea
TTITLE5=Billy McCoy
TTITLE6=The Old Lamplighter
TTITLE7=Am I That Easy to Forget
TTITLE8=That Little Boy of Mine
TTITLE9=Scarlet Ribbons (For Her Hair)
TTITLE10=Halfway to Heaven
TTITLE11=True Love
EXTD=
EXTT0=
EXTT1=
EXTT2=
EXTT3=
EXTT4=
EXTT5=
EXTT6=
EXTT7=
EXTT8=
EXTT9=
EXTT10=
EXTT11=
PLAYORDER=
